<svg xmlns="http://www.w3.org/2000/svg" xmlns:svg="http://www.w3.org/2000/svg" id="svg7150" width="24mm" height="24mm" version="1.1" viewBox="0 0 85.039 85.039"><metadata id="metadata7155"/><g id="layer1" transform="translate(3.2659076,-67.512505)"><rect id="rect19" width="394.283" height="174.76" x="-306.23" y="53.855" style="fill:#fff;stroke-width:.54190218"/><g id="layer1-2" transform="matrix(0.57247711,0,0,0.57247711,-1.3879987,63.678177)"><g id="layer1-1" transform="translate(-5.3771032,72.090169)"><path style="fill:#7a9a45;fill-opacity:1;stroke:none;stroke-width:.36019075;stroke-opacity:1" id="rect4170" d="M 2.0967819,-69.744482 V 83.153934 H 154.99472 V -69.744482 Z m 144.9539981,15.630009 -22.40991,46.624717 6.86877,-32.596238 4.65642,5.121808 9.37142,-18.218877 -6.8102,3.201689 -32.30529,23.74878 -6.519249,-2.619797 2.328219,-3.259625 6.2283,-1.280291 28.69615,-17.055089 z m -67.250737,11.937737 -3.37549,4.52718 -1.15233,5.021858 -11.60668,3.621877 -11.68945,8.231821 0.49404,-4.527818 0.98807,-2.633804 4.77421,-5.351005 11.77157,-7.902037 z m -5.02186,14.405371 -5.18548,4.939094 -0.16489,1.811252 -4.11591,-1.481468 z m 3.53975,2.38742 h 1.56423 l -2.30466,3.457619 0.4934,2.798693 -4.6093,2.633801 -8.23183,3.704637 -10.94839,-3.621873 -1.64636,-2.140404 3.04571,1.481471 3.04571,-1.31658 4.60995,2.057637 8.6431,-1.728487 z m 29.268487,2.294473 2.96804,2.735663 -0.17444,7.450657 -1.62982,3.0845436 -4.88943,-5.5292626 -1.3968,-5.879419 z m -56.926907,4.538 1.97551,2.716569 -3.04571,2.304655 -2.46955,-0.08213 -1.81125,2.057637 0.4119,-3.209966 z m 35.3962,3.621876 1.89339,6.4205686 -8.14906,6.0920574 -0.49404,2.38678304 -8.31395,5.59802296 -2.22253,13.582188 -11.60731,0.741056 -18.9332,-5.351004 3.37549,-10.618607 6.5027,-12.5947504 h 3.62251 l 6.83185,-3.0457146 10.04307,1.070202 10.61925,-3.62251 z m 18.604047,30.37562 7.24375,18.521282 -0.98744,5.433131 -4.85697,4.198041 -12.347727,0.576165 9.878187,-1.810621 4.11591,-5.186113 z m -69.064547,0.740415 29.14053,9.384151 13.58219,11.031154 -2.55168,2.88082 -10.7835,6.091424 -13.50006,1.975509 -11.52455,-6.667588 -14.07686,-2.222528 -10.28946,2.469547 1.48147,-11.771567 4.60995,-10.042445 7.90267,-3.045712 z m 41.81741,0.247023 2.55167,2.305293 3.78677,3.374853 4.11591,5.350367 2.88145,5.680147 -1.81125,-0.741053 h -2.30466 l -7.0795,3.210596 0.24703,-5.515255 -0.41191,-6.256311 z m -51.20156,33.503455 11.60667,4.198037 -4.28079,3.12847 -2.71657,4.03315 -5.43249,-6.00866 -4.44506,1.23446 -1.56424,-4.527183 4.44506,-1.893386 z"/></g></g></g></svg>